<?xml version="1.0" encoding="UTF-8"?>
<svg width="100px" height="100px" viewBox="0 0 100 100" version="1.1" xmlns="http://www.w3.org/2000/svg" xmlns:xlink="http://www.w3.org/1999/xlink">
    <!-- Generator: Sketch 44.1 (41455) - http://www.bohemiancoding.com/sketch -->
    <title>Icon/Service/Portfolio Optimizer Service/100x100</title>
    <desc>Created with Sketch.</desc>
    <defs>
        <path d="M0.00526919623,0.428133615 C0.00526919623,5.92303968 11.1106272,10.3790921 24.8052682,10.3790921 C38.5020169,10.3790921 49.6042133,5.92303968 49.6042133,0.428133615 L0.00526919623,0.428133615 Z" id="path-1"></path>
        <polygon id="path-3" points="0.720233339 3.28987014 34.3711794 3.28987014 34.3711794 0.324091971 0.720233339 0.324091971"></polygon>
        <path d="M1.46169375,0.880192344 C0.876618239,0.880192344 0.40398071,1.78116176 0.40398071,2.89367955 L0.40398071,3.7058742 C0.40398071,4.82028082 0.876618239,5.72125024 1.46169375,5.72125024 L48.6737053,5.72125024 C49.2597759,5.72125024 49.7324134,4.82028082 49.7324134,3.7058742 L49.7324134,2.89367955 C49.7324134,1.78116176 49.2597759,0.880192344 48.6737053,0.880192344 L1.46169375,0.880192344 Z" id="path-5"></path>
    </defs>
    <g id="Finanlized-Icons" stroke="none" stroke-width="1" fill="none" fill-rule="evenodd">
        <g id="Icon/Service/Portfolio-Optimizer-Service/100x100">
            <circle id="Oval-Copy-3" fill="#F8FAFA" cx="50" cy="50" r="50"></circle>
            <g id="Group-3-Copy-2" transform="translate(4.672852, 14.501537)">
                <g id="Group-37-Copy" transform="translate(20.019226, 64.531739)">
                    <mask id="mask-2" fill="white">
                        <use xlink:href="#path-1"></use>
                    </mask>
                    <g id="Clip-36"></g>
                    <polygon id="Fill-35" fill="#E3ECEC" mask="url(#mask-2)" points="-6.74457118 20.4622684 56.3551076 20.4622684 56.3551076 -9.65504263 -6.74457118 -9.65504263"></polygon>
                </g>
                <rect id="Rectangle-2-Copy" fill="#FFFFFF" x="26.9529579" y="52.0802115" width="34.373543" height="5.20457096"></rect>
                <g id="Group-29-Copy" transform="translate(26.653198, 55.152086)">
                    <mask id="mask-4" fill="white">
                        <use xlink:href="#path-3"></use>
                    </mask>
                    <g id="Clip-28"></g>
                    <polygon id="Fill-27" fill="#E1ECF8" mask="url(#mask-4)" points="-4.34432733 13.9437171 39.4341589 13.9437171 39.4341589 -10.3314184 -4.34432733 -10.3314184"></polygon>
                </g>
                <path d="M59.5222232,51.5125445 C60.6614862,51.5125445 61.3404297,52.9730321 61.3404297,54.6764247 L61.3404297,55.6958863 C61.3404297,57.3992789 60.6614862,58.8597665 59.5222232,58.8597665 L28.217767,58.8597665 C27.0779012,58.8597665 26.3995605,57.3998938 26.3995605,55.6958863 L26.3995605,54.6764247 C26.3995605,52.9724172 27.0779012,51.5125445 28.217767,51.5125445 L59.5222232,51.5125445 Z M59.5222232,52.8125445 L28.217767,52.8125445 C28.0678187,52.8125445 27.6995605,53.6050815 27.6995605,54.6764247 L27.6995605,55.6958863 C27.6995605,56.7672295 28.0678187,57.5597665 28.217767,57.5597665 L59.5222232,57.5597665 C59.6717394,57.5597665 60.0404297,56.7666701 60.0404297,55.6958863 L60.0404297,54.6764247 C60.0404297,53.6056409 59.6717394,52.8125445 59.5222232,52.8125445 Z" id="Stroke-30-Copy" fill="#067CBF" fill-rule="nonzero"></path>
                <rect id="Rectangle-2" fill="#FFFFFF" x="19.4565648" y="58.2627705" width="48.6545191" height="7.75874314"></rect>
                <g id="Group-45-Copy" transform="translate(18.653432, 60.617648)">
                    <mask id="mask-6" fill="white">
                        <use xlink:href="#path-5"></use>
                    </mask>
                    <g id="Clip-44"></g>
                    <polygon id="Fill-43" fill="#E1ECF8" mask="url(#mask-6)" points="-5.97015827 17.8210617 56.1075474 17.8210617 56.1075474 -11.2177303 -5.97015827 -11.2177303"></polygon>
                </g>
                <path d="M66.8534507,57.5360848 C68.3456331,57.5360848 69.3921875,59.3019659 69.3921875,61.372641 L69.3921875,62.6573795 C69.3921875,64.7294719 68.3458562,66.4956216 66.8534507,66.4956216 L20.9292768,66.4956216 C19.4384821,66.4956216 18.3935476,64.7292395 18.3935476,62.6573795 L18.3935476,61.372641 C18.3935476,59.3021984 19.438705,57.5360848 20.9292768,57.5360848 L66.8534507,57.5360848 Z M66.8534507,58.8360848 L20.9292768,58.8360848 C20.3386061,58.8360848 19.6935476,59.9261087 19.6935476,61.372641 L19.6935476,62.6573795 C19.6935476,64.1053445 20.3385203,65.1956216 20.9292768,65.1956216 L66.8534507,65.1956216 C67.4463685,65.1956216 68.0921875,64.1055146 68.0921875,62.6573795 L68.0921875,61.372641 C68.0921875,59.9259388 67.4462825,58.8360848 66.8534507,58.8360848 Z" id="Stroke-51-Copy" fill="#067CBF" fill-rule="nonzero"></path>
                <path d="M9.53621727,18.1384007 L76.9410758,6.13840069 C77.2945037,6.07548037 77.5300067,5.73796339 77.4670864,5.38453543 C77.4041661,5.03110746 77.0666491,4.79560449 76.7132211,4.85852482 L9.30836262,16.8585248 C8.95493465,16.9214451 8.71943168,17.2589621 8.782352,17.6123901 C8.84527233,17.965818 9.1827893,18.201321 9.53621727,18.1384007 Z" id="Line" fill="#067CBF" fill-rule="nonzero"></path>
                <g id="Group-3" transform="translate(39.936279, 0.172291)">
                    <polygon id="Fill-2" fill="#FFFFFF" points="0.314941186 51.9956073 7.25768286 51.9956073 7.25768286 0 0.314941186 0"></polygon>
                    <polygon id="Stroke-10" stroke="#067CBF" stroke-width="1.3" stroke-linecap="round" stroke-linejoin="round" points="0.0977236627 51.9956073 7.73139152 51.9956073 7.73139152 31.8045442 7.73139152 0 0.0977236627 0"></polygon>
                </g>
                <polygon id="Fill-8" fill="#E1ECF8" points="43.3037109 51.498951 44.3242188 51.498951 44.3242188 0.832630234 43.3037109 0.832630234"></polygon>
                <g id="Group-2" transform="translate(0.786351, 13.410429)">
                    <path d="M14.1583323,4.69961524 L24.623228,25.4767243 C24.7847127,25.7973377 25.1755305,25.926337 25.4961439,25.7648523 C25.8167574,25.6033675 25.9457566,25.2125497 25.7842719,24.8919363 L14.0509431,1.59646733 L4.25603103,24.9327675 C4.11709672,25.2637774 4.27280474,25.6447424 4.60381463,25.7836767 C4.93482453,25.922611 5.31578958,25.766903 5.45472389,25.4358931 L14.1583323,4.69961524 Z" id="Path-5" fill="#067CBF" fill-rule="nonzero"></path>
                    <ellipse id="Oval-10" fill="#067CBF" cx="14.109987" cy="3.14804129" rx="3.16728352" ry="3.14804129"></ellipse>
                    <path d="M1.4963638,26.0636199 L28.4963638,26.0636199 C26.4963638,32.7302865 22.1630305,36.3969532 15.4963638,37.0636199 C8.82969713,37.7302865 4.16303046,34.0636199 1.4963638,26.0636199 Z" id="Path-2" fill="#E1EBF7"></path>
                    <path d="M0.688899431,25.8479352 L0.583014531,25.1060903 L29.5621334,25.1060903 L29.4562485,25.8479352 C28.4392403,32.9732412 22.3252885,38.3294752 15.072574,38.3294752 C7.81985943,38.3294752 1.70590762,32.9732412 0.688899431,25.8479352 Z M15.072574,37.0294752 C21.4213633,37.0294752 26.8131354,32.5200219 28.0419299,26.4060903 L2.10321806,26.4060903 C3.33201252,32.5200219 8.72378458,37.0294752 15.072574,37.0294752 Z" id="Combined-Shape" fill="#067CBF" fill-rule="nonzero"></path>
                </g>
                <g id="Group" transform="translate(56.691131, 3.377450)">
                    <path d="M14.0712191,4.68633083 L24.6541675,25.479169 C24.8170025,25.7990988 25.2083606,25.9264494 25.5282904,25.7636144 C25.8482202,25.6007795 25.9755707,25.2094214 25.8127358,24.8894916 L13.9640269,1.60975174 L4.07269945,24.9305236 C3.93252591,25.2610107 4.08680546,25.6425564 4.41729247,25.78273 C4.74777949,25.9229035 5.12932527,25.768624 5.26949882,25.438137 L14.0712191,4.68633083 Z" id="Path-5-Copy" fill="#067CBF" fill-rule="nonzero"></path>
                    <path d="M1.63601748,26.1210128 L28.6360175,26.1210128 C26.6360175,32.7876795 22.3026841,36.4543462 15.6360175,37.1210128 C8.96935082,37.7876795 4.30268415,34.1210128 1.63601748,26.1210128 Z" id="Path-2" fill="#E1EBF7"></path>
                    <path d="M0.756993827,25.8688733 L0.651227967,25.1271186 L29.6013391,25.1271186 L29.4955733,25.8688733 C28.4796394,32.9937965 22.3718933,38.3499645 15.1262835,38.3499645 C7.88067384,38.3499645 1.7729277,32.9937965 0.756993827,25.8688733 Z M15.1262835,37.0499645 C21.4679661,37.0499645 26.8538995,32.5408471 28.0813749,26.4271186 L2.17119223,26.4271186 C3.39866755,32.5408471 8.78460096,37.0499645 15.1262835,37.0499645 Z" id="Combined-Shape-Copy" fill="#067CBF" fill-rule="nonzero"></path>
                    <ellipse id="Oval-10-Copy" fill="#067CBF" cx="14.1106078" cy="3.14804129" rx="3.16728352" ry="3.14804129"></ellipse>
                </g>
            </g>
            <g id="Group-8" transform="translate(77.000000, 58.000000)">
                <path d="M5,1 C3,3.66666667 1.66666667,5 1,5 C0.333333333,5 1.66666667,6.33333333 5,9 L9,5 L5,1 Z" id="Path-4" fill="#FED500"></path>
                <path d="M8.83726895,4.12814112 C9.70410174,4.47702064 9.70410174,5.70685436 8.83766713,6.05557405 C7.40018044,6.63314388 6.18199414,7.90899728 5.68043345,9.4206086 C5.39476048,10.2840471 4.18490358,10.2840471 3.89937277,9.42103776 C3.39382725,7.89659691 2.16088683,6.61283147 0.710938576,6.04314285 C-0.150150184,5.70367517 -0.150150184,4.47843724 0.711574805,4.14148172 C2.15753979,3.57319452 3.38928769,2.29235522 3.89623564,0.773251195 C4.18280557,-0.0928268167 5.39467813,-0.0928268167 5.68397617,0.771889452 C6.18688658,2.28062066 7.40309761,3.55300258 8.83726895,4.12814112 Z M4.79017134,2.00712504 C4.1365328,3.32985328 3.04607038,4.4326333 1.75993065,5.0923487 C3.04592562,5.75160149 4.1362107,6.85392449 4.78989792,8.1768702 C5.44362,6.85448182 6.53416119,5.75220079 7.82120954,5.09208085 C6.53391451,4.43243039 5.44334086,3.32972425 4.79017134,2.00712504 Z" id="Stroke-62" fill="#047CC0" fill-rule="nonzero"></path>
            </g>
            <g id="Group-6" transform="translate(59.000000, 70.000000)">
                <g id="Group-5" transform="translate(0.000000, 5.000000)">
                    <g id="Group-69" transform="translate(0.000000, 3.060186)">
                        <path d="M0.44641126,0.32919956 L0.44641126,3.53627499 C0.44641126,5.30812296 4.07719136,6.74411546 8.55704206,6.74411546 C13.035319,6.74411546 16.6660991,5.30812296 16.6660991,3.53627499 L16.6660991,0.32919956" id="Fill-66" fill="#E3ECEC"></path>
                        <path d="M0.44641126,0.32919956 L0.44641126,3.53627499 C0.44641126,5.30812296 4.07719136,6.74411546 8.55704206,6.74411546 C13.035319,6.74411546 16.6660991,5.30812296 16.6660991,3.53627499 L16.6660991,0.32919956" id="Stroke-68" stroke="#047CC0" stroke-width="1.3" stroke-linecap="round" stroke-linejoin="round"></path>
                    </g>
                    <path d="M8.1106308,0 C12.5889077,0 16.2204747,1.4359925 16.2204747,3.20707543 C16.2204747,4.9789234 12.5889077,6.4149159 8.1106308,6.4149159 C3.63156701,6.4149159 0,4.9789234 0,3.20707543 C0,1.4359925 3.63156701,0 8.1106308,0" id="Fill-70" fill="#FED500"></path>
                    <path d="M8.1106308,0.65 C3.96234336,0.65 0.65,1.9597578 0.65,3.20707543 C0.65,4.45506844 3.96202438,5.7649159 8.1106308,5.7649159 C12.2585801,5.7649159 15.5704747,4.45503196 15.5704747,3.20707543 C15.5704747,1.95979427 12.2582611,0.65 8.1106308,0.65 Z M8.1106308,-0.65 C12.919777,-0.65 16.8704747,0.912278823 16.8704747,3.20707543 C16.8704747,5.50249012 12.9200563,7.0649159 8.1106308,7.0649159 C3.30053197,7.0649159 -0.65,5.5025499 -0.65,3.20707543 C-0.65,0.912219053 3.30081128,-0.65 8.1106308,-0.65 Z" id="Stroke-72" fill="#047CC0" fill-rule="nonzero"></path>
                    <g id="Group-77" transform="translate(3.147620, 5.355326)">
                        <path d="M0.698456961,3.75546084 L0.698456961,0.735821838" id="Fill-74" fill="#FED500"></path>
                        <path d="M0.698456961,3.75546084 L0.698456961,0.735821838" id="Stroke-76" stroke="#047CC0" stroke-width="1.3" stroke-linecap="round" stroke-linejoin="round"></path>
                    </g>
                    <g id="Group-81" transform="translate(13.377387, 5.355326)">
                        <path d="M0.0175479836,3.75546084 L0.0175479836,0.735821838" id="Fill-78" fill="#FED500"></path>
                        <path d="M0.0175479836,3.75546084 L0.0175479836,0.735821838" id="Stroke-80" stroke="#047CC0" stroke-width="1.3" stroke-linecap="round" stroke-linejoin="round"></path>
                    </g>
                    <g id="Group-85" transform="translate(7.869051, 6.120373)">
                        <path d="M0.687676362,0.476318025 L0.687676362,3.68339345" id="Fill-82" fill="#FED500"></path>
                        <path d="M0.687676362,0.476318025 L0.687676362,3.68339345" id="Stroke-84" stroke="#047CC0" stroke-width="1.3" stroke-linecap="round" stroke-linejoin="round"></path>
                    </g>
                </g>
                <g id="Group-4" transform="translate(6.000000, 0.000000)">
                    <g id="Group-89" transform="translate(0.000000, 3.060186)">
                        <path d="M0.631570028,0.108024583 L0.631570028,3.31510001 C0.631570028,5.08694798 4.26235013,6.52294048 8.74220083,6.52294048 C13.2204777,6.52294048 16.8520447,5.08694798 16.8520447,3.31510001 L16.8520447,0.108024583" id="Fill-86" fill="#E3ECEC"></path>
                        <path d="M0.631570028,0.108024583 L0.631570028,3.31510001 C0.631570028,5.08694798 4.26235013,6.52294048 8.74220083,6.52294048 C13.2204777,6.52294048 16.8520447,5.08694798 16.8520447,3.31510001 L16.8520447,0.108024583" id="Stroke-88" stroke="#047CC0" stroke-width="1.3" stroke-linecap="round" stroke-linejoin="round"></path>
                    </g>
                    <path d="M8.8975359,0 C13.3758128,0 17.0081667,1.43675755 17.0081667,3.20707543 C17.0081667,4.9789234 13.3758128,6.4149159 8.8975359,6.4149159 C4.4184721,6.4149159 0.786905094,4.9789234 0.786905094,3.20707543 C0.786905094,1.43675755 4.4184721,0 8.8975359,0" id="Fill-90" fill="#FED500"></path>
                    <path d="M8.8975359,0.65 C4.74989671,0.65 1.43690509,1.96022999 1.43690509,3.20707543 C1.43690509,4.45506844 4.74892948,5.7649159 8.8975359,5.7649159 C13.0456191,5.7649159 16.3581667,4.45494931 16.3581667,3.20707543 C16.3581667,1.96034911 13.0446518,0.65 8.8975359,0.65 Z M8.8975359,-0.65 C13.7061604,-0.65 17.6581667,0.912844346 17.6581667,3.20707543 C17.6581667,5.50245408 13.7071277,7.0649159 8.8975359,7.0649159 C4.08743706,7.0649159 0.136905094,5.5025499 0.136905094,3.20707543 C0.136905094,0.912748524 4.08840429,-0.65 8.8975359,-0.65 Z" id="Stroke-92" fill="#047CC0" fill-rule="nonzero"></path>
                    <g id="Group-97" transform="translate(3.934525, 5.355326)">
                        <path d="M0.0967106361,3.53428587 L0.0967106361,0.515411907" id="Fill-94" fill="#FED500"></path>
                        <path d="M0.0967106361,3.53428587 L0.0967106361,0.515411907" id="Stroke-96" stroke="#047CC0" stroke-width="1.3" stroke-linecap="round" stroke-linejoin="round"></path>
                    </g>
                    <g id="Group-101" transform="translate(13.377387, 5.355326)">
                        <path d="M0.202785443,3.53428587 L0.202785443,0.515411907" id="Fill-98" fill="#FED500"></path>
                        <path d="M0.202785443,3.53428587 L0.202785443,0.515411907" id="Stroke-100" stroke="#047CC0" stroke-width="1.3" stroke-linecap="round" stroke-linejoin="round"></path>
                    </g>
                    <g id="Group-105" transform="translate(8.655956, 6.120373)">
                        <path d="M0.0860087268,0.255219552 L0.0860087268,3.46229498" id="Fill-102" fill="#FED500"></path>
                        <path d="M0.0860087268,0.255219552 L0.0860087268,3.46229498" id="Stroke-104" stroke="#047CC0" stroke-width="1.3" stroke-linecap="round" stroke-linejoin="round"></path>
                    </g>
                </g>
            </g>
            <g id="Group-7" transform="translate(23.000000, 11.000000)">
                <path d="M7,3 C5,5.88888889 3.33333333,7.55555556 2,8 C1.0402362,8.31992127 3.07359693,8.65073719 5.22270276,9.89180501 C6.65543998,10.7191836 7.32210665,11.6080725 7.22270276,12.5584717 C7.90590397,11.2863522 8.57257064,10.3974633 9.22270276,9.89180501 C9.87283489,9.3861467 10.7986006,8.42221169 12,7 C11.372716,6.72558297 10.7060494,6.39224964 10,6 C9.29395065,5.60775036 8.29395065,4.60775036 7,3 Z" id="Path-3" fill="#FED500"></path>
                <path d="M13.0777398,6.54678593 C13.9283051,6.69437047 13.9933342,7.88029627 13.1670522,8.12468947 C10.5125124,8.91113568 8.34499624,11.5873414 8.20302522,14.4918235 C8.16503457,15.3086224 6.99445657,15.370777 6.86393463,14.5689978 C6.38839635,11.6637778 3.87624623,9.2289883 1.12229227,8.78937935 C0.278469174,8.65753199 0.213766076,7.48307272 1.03326899,7.25081458 C3.70815557,6.50619624 5.92285201,3.82169592 6.08330219,0.891385307 C6.13175315,0.083869344 7.29509823,0.0128253695 7.42922494,0.817602831 C7.9138548,3.67338307 10.3638359,6.06875158 13.0777398,6.54678593 Z M6.89414565,3.28262675 C6.15838756,5.26947196 4.66973358,6.96383594 2.8473179,7.91972631 C4.76768182,8.66394681 6.43792646,10.1785728 7.39349488,12.0687084 C8.12828047,10.0832203 9.61515575,8.3891165 11.4411817,7.43126102 C9.51924502,6.68674482 7.84962834,5.17235613 6.89414565,3.28262675 Z" id="Stroke-12" fill="#047CC0" fill-rule="nonzero"></path>
            </g>
        </g>
    </g>
</svg>